<svg width="16" height="13" viewBox="0 0 16 13" fill="none" xmlns="http://www.w3.org/2000/svg">
<path fill-rule="evenodd" clip-rule="evenodd" d="M0 4.33333H1.45455V1.44444H14.5455V11.5556H8.72727V13H14.5455C15.3488 13 16 12.3533 16 11.5556V1.44444C16 0.6467 15.3488 0 14.5455 0H1.45455C0.651222 0 0 0.6467 0 1.44444V4.33333ZM7.27273 13H5.81818C5.81818 9.80902 3.21329 7.22222 0 7.22222V5.77778C4.01662 5.77778 7.27273 9.01128 7.27273 13ZM2.90909 13H4.36364C4.36364 10.6068 2.40997 8.66667 0 8.66667V10.1111C1.60665 10.1111 2.90909 11.4045 2.90909 13ZM0 11.5556V13H1.45455C1.45455 12.2023 0.803323 11.5556 0 11.5556Z" fill="black"/>
</svg>
