<svg width="15" height="14" viewBox="0 0 15 14" fill="none" xmlns="http://www.w3.org/2000/svg">
<mask id="path-1-inside-1" fill="white">
<path fill-rule="evenodd" clip-rule="evenodd" d="M9.41074 0.894092L11.3223 2.34433H4.16667C1.86548 2.34433 0 3.7596 0 5.50543V7.40208H1.66667V5.50543C1.66667 4.45793 2.78595 3.60877 4.16667 3.60877H11.3207L9.41074 5.05775L10.5893 5.95184L14.5118 2.97592L10.5893 0L9.41074 0.894092ZM5.58931 12.6444L3.67856 11.1948H10.8334C13.1346 11.1948 15 9.77949 15 8.03367V6.13701H13.3334V8.03367C13.3334 9.08116 12.2141 9.93032 10.8334 9.93032H3.67856L5.58931 8.48072L4.41079 7.58662L0.488205 10.5625L4.41079 13.5385L5.58931 12.6444Z"/>
</mask>
<path fill-rule="evenodd" clip-rule="evenodd" d="M9.41074 0.894092L11.3223 2.34433H4.16667C1.86548 2.34433 0 3.7596 0 5.50543V7.40208H1.66667V5.50543C1.66667 4.45793 2.78595 3.60877 4.16667 3.60877H11.3207L9.41074 5.05775L10.5893 5.95184L14.5118 2.97592L10.5893 0L9.41074 0.894092ZM5.58931 12.6444L3.67856 11.1948H10.8334C13.1346 11.1948 15 9.77949 15 8.03367V6.13701H13.3334V8.03367C13.3334 9.08116 12.2141 9.93032 10.8334 9.93032H3.67856L5.58931 8.48072L4.41079 7.58662L0.488205 10.5625L4.41079 13.5385L5.58931 12.6444Z" fill="#E74D88"/>
<path d="M11.3223 2.34433V4.34433H17.2676L12.5311 0.750982L11.3223 2.34433ZM9.41074 0.894092L8.20193 -0.699259L6.10172 0.894092L8.20193 2.48744L9.41074 0.894092ZM0 7.40208H-2V9.40208H0V7.40208ZM1.66667 7.40208V9.40208H3.66667V7.40208H1.66667ZM11.3207 3.60877L12.5295 5.20212L17.2659 1.60877H11.3207V3.60877ZM9.41074 5.05775L8.20193 3.4644L6.10172 5.05775L8.20193 6.6511L9.41074 5.05775ZM10.5893 5.95184L9.38044 7.54519L10.5893 8.46227L11.7981 7.54519L10.5893 5.95184ZM14.5118 2.97592L15.7207 4.56927L17.8209 2.97592L15.7207 1.38257L14.5118 2.97592ZM10.5893 0L11.7981 -1.59335L10.5893 -2.51043L9.38044 -1.59335L10.5893 0ZM3.67856 11.1948V9.19476H-2.26668L2.46975 12.7881L3.67856 11.1948ZM5.58931 12.6444L6.79812 14.2377L8.89833 12.6444L6.79812 11.051L5.58931 12.6444ZM15 6.13701H17V4.13701H15V6.13701ZM13.3334 6.13701V4.13701H11.3334V6.13701H13.3334ZM3.67856 9.93032L2.46975 8.33697L-2.26669 11.9303H3.67856V9.93032ZM5.58931 8.48072L6.79812 10.0741L8.89833 8.48072L6.79812 6.88736L5.58931 8.48072ZM4.41079 7.58662L5.61961 5.99327L4.41079 5.07619L3.20198 5.99327L4.41079 7.58662ZM0.488205 10.5625L-0.72061 8.96919L-2.82082 10.5625L-0.72061 12.1559L0.488205 10.5625ZM4.41079 13.5385L3.20198 15.1318L4.41079 16.0489L5.61961 15.1318L4.41079 13.5385ZM12.5311 0.750982L10.6196 -0.699259L8.20193 2.48744L10.1135 3.93768L12.5311 0.750982ZM4.16667 4.34433H11.3223V0.344333H4.16667V4.34433ZM2 5.50543C2 5.39331 2.05506 5.1474 2.4292 4.86355C2.80472 4.57865 3.41237 4.34433 4.16667 4.34433V0.344333C2.61977 0.344333 1.14409 0.817648 0.0115734 1.67685C-1.12232 2.53709 -2 3.87172 -2 5.50543H2ZM2 7.40208V5.50543H-2V7.40208H2ZM1.66667 5.40208H0V9.40208H1.66667V5.40208ZM-0.333333 5.50543V7.40208H3.66667V5.50543H-0.333333ZM4.16667 1.60877C3.08001 1.60877 2.02099 1.94056 1.19008 2.57094C0.357799 3.20236 -0.333333 4.22089 -0.333333 5.50543H3.66667C3.66667 5.60924 3.63698 5.69265 3.60999 5.74106C3.58598 5.78413 3.57413 5.78312 3.60772 5.75764C3.68163 5.70156 3.87261 5.60877 4.16667 5.60877V1.60877ZM11.3207 1.60877H4.16667V5.60877H11.3207V1.60877ZM10.6196 6.6511L12.5295 5.20212L10.1118 2.01542L8.20193 3.4644L10.6196 6.6511ZM11.7981 4.35849L10.6196 3.4644L8.20193 6.6511L9.38044 7.54519L11.7981 4.35849ZM13.303 1.38257L9.38044 4.35849L11.7981 7.54519L15.7207 4.56927L13.303 1.38257ZM9.38044 1.59335L13.303 4.56927L15.7207 1.38257L11.7981 -1.59335L9.38044 1.59335ZM10.6196 2.48744L11.7981 1.59335L9.38044 -1.59335L8.20193 -0.699259L10.6196 2.48744ZM2.46975 12.7881L4.38049 14.2377L6.79812 11.051L4.88738 9.60141L2.46975 12.7881ZM10.8334 9.19476H3.67856V13.1948H10.8334V9.19476ZM13 8.03367C13 8.14579 12.945 8.3917 12.5708 8.67555C12.1953 8.96044 11.5877 9.19476 10.8334 9.19476V13.1948C12.3803 13.1948 13.856 12.7214 14.9885 11.8622C16.1224 11.002 17 9.66737 17 8.03367H13ZM13 6.13701V8.03367H17V6.13701H13ZM13.3334 8.13701H15V4.13701H13.3334V8.13701ZM15.3334 8.03367V6.13701H11.3334V8.03367H15.3334ZM10.8334 11.9303C11.92 11.9303 12.9791 11.5985 13.81 10.9682C14.6423 10.3367 15.3334 9.31821 15.3334 8.03367H11.3334C11.3334 7.92985 11.3631 7.84645 11.3901 7.79803C11.4141 7.75496 11.4259 7.75598 11.3923 7.78146C11.3184 7.83753 11.1274 7.93032 10.8334 7.93032V11.9303ZM3.67856 11.9303H10.8334V7.93032H3.67856V11.9303ZM4.38049 6.88736L2.46975 8.33697L4.88738 11.5237L6.79812 10.0741L4.38049 6.88736ZM3.20198 9.17997L4.38049 10.0741L6.79812 6.88736L5.61961 5.99327L3.20198 9.17997ZM1.69702 12.1559L5.61961 9.17997L3.20198 5.99327L-0.72061 8.96919L1.69702 12.1559ZM5.61961 11.9451L1.69702 8.96919L-0.72061 12.1559L3.20198 15.1318L5.61961 11.9451ZM4.38049 11.051L3.20198 11.9451L5.61961 15.1318L6.79812 14.2377L4.38049 11.051Z" fill="#E74D88" mask="url(#path-1-inside-1)"/>
</svg>
