<svg width="16" height="13" viewBox="0 0 16 13" fill="none" xmlns="http://www.w3.org/2000/svg">
<path fill-rule="evenodd" clip-rule="evenodd" d="M12.6735 3.51391L12.1726 3.5139C10.4173 3.52794 9.70509 4.17261 8.55771 6.32369C8.42878 6.56603 8.36021 6.69476 8.29602 6.81392C6.75643 9.67187 5.18183 10.9335 1.73779 10.9791H0V9.48607L1.72438 9.48616C4.34255 9.45143 5.42942 8.58058 6.71895 6.18681C6.78133 6.07102 6.84804 5.94578 6.97791 5.70168C8.37941 3.07418 9.5197 2.04202 12.1645 2.0209H12.6735L11.5501 1.05573L12.7789 0L16 2.76742L12.7789 5.53483L11.5501 4.4791L12.6735 3.51391ZM12.6735 10.9791H12.1646C10.485 10.9657 9.41218 10.5446 8.4939 9.56606C8.83481 9.14495 9.15484 8.67756 9.46311 8.16356C10.1933 9.14246 10.9154 9.47604 12.1726 9.4861L12.6736 9.48609L11.5502 8.5209L12.779 7.46517L16 10.2326L12.779 13L11.5502 11.9443L12.6735 10.9791ZM1.72438 3.51384C3.49481 3.53733 4.56504 3.94313 5.47122 4.94362C5.75603 4.41751 6.03915 3.94125 6.33112 3.51333C5.21163 2.51808 3.8146 2.04839 1.73779 2.0209H0V3.51393L1.72438 3.51384Z" fill="black"/>
</svg>
