<svg width="16" height="13" viewBox="0 0 16 13" fill="none" xmlns="http://www.w3.org/2000/svg">
    <path fill-rule="evenodd" clip-rule="evenodd" d="M5.09091 3.94921L8 2.44075V10.5593L5.09091 9.05079V3.94921ZM4.19195 2.72884L9.45454 0V13L4.19195 10.2712H1.45455C0.651222 10.2712 0 9.5958 0 8.7627V4.2373C0 3.4042 0.651222 2.72884 1.45455 2.72884H4.19195ZM3.63636 4.2373H1.45455V8.7627H3.63636V4.2373ZM13.5848 0.0563827C15.0645 1.58297 16 3.91155 16 6.5C16 9.08845 15.0645 11.417 13.5848 12.9436L12.4387 11.9927C13.7082 10.7642 14.5455 8.77188 14.5455 6.5C14.5455 4.22812 13.7082 2.23584 12.4387 1.00729L13.5848 0.0563827ZM13.0909 6.5C13.0909 4.6818 12.4108 3.03987 11.3271 1.9295L10.1798 2.88133C11.0598 3.70309 11.6364 5.0109 11.6364 6.5C11.6364 7.9891 11.0598 9.29691 10.1798 10.1187L11.3271 11.0705C12.4108 9.96013 13.0909 8.3182 13.0909 6.5Z" fill="black"/>
</svg>
